<?xml version="1.0" encoding="utf-8"?>
<!-- Generator: Adobe Illustrator 21.1.0, SVG Export Plug-In . SVG Version: 6.00 Build 0)  -->
<svg version="1.1" id="Layer_1" xmlns="http://www.w3.org/2000/svg" xmlns:xlink="http://www.w3.org/1999/xlink" x="0px" y="0px"
	 viewBox="0 0 83 21" style="enable-background:new 0 0 83 21;" xml:space="preserve">
<style type="text/css">
	.st0{fill:#FFFFFF;}
</style>
<g>
	<path class="st0" d="M68.7,11.6c0,3.5,2.8,6.3,6.3,6.3s6.3-2.8,6.3-6.3S78.5,5.3,75,5.3C71.5,5.3,68.7,8.1,68.7,11.6 M67.3,11.6
		c0-4.2,3.4-7.7,7.7-7.7c4.2,0,7.7,3.4,7.7,7.7c0,4.2-3.4,7.7-7.7,7.7C70.7,19.3,67.3,15.8,67.3,11.6 M71.9,8.6H78v6.1h-6.1V8.6z"/>
	<path class="st0" d="M3.7,20v0.7h1.7V20H4.8v-3.3c0-0.3-0.1-0.5-0.2-0.7c-0.1-0.2-0.2-0.4-0.4-0.6C4,15.2,3.8,15.1,3.6,15
		c-0.2-0.1-0.5-0.1-0.8-0.1S2.3,14.9,2,15c-0.2,0-0.4,0.1-0.6,0.2c-0.2,0.1-0.3,0.1-0.4,0.2l-0.2,0.1v1h1v-0.6
		c0.1-0.1,0.2-0.1,0.3-0.2c0.2-0.1,0.3-0.1,0.5-0.1c0.4,0,0.6,0.1,0.8,0.4c0.2,0.3,0.3,0.6,0.3,0.9v0.4l-1,0.2
		c-0.2,0.1-0.5,0.1-0.7,0.3c-0.3,0.1-0.5,0.2-0.7,0.4c-0.2,0.2-0.4,0.3-0.6,0.5c-0.1,0.2-0.2,0.4-0.2,0.6c0,0.5,0.2,0.8,0.5,1.1
		c0.3,0.3,0.8,0.4,1.3,0.4c0.4,0,0.7-0.2,1-0.4c0.1-0.1,0.2-0.2,0.3-0.3C3.6,20.1,3.6,20,3.7,20L3.7,20z M2.9,18l0.8-0.2v1.4
		c0,0.1-0.1,0.2-0.2,0.3c-0.1,0.1-0.2,0.2-0.3,0.3C3.1,19.9,3,20,2.8,20.1c-0.1,0.1-0.3,0.1-0.4,0.1c-0.2,0-0.4-0.1-0.6-0.3
		c-0.1-0.2-0.2-0.4-0.2-0.7c0-0.2,0-0.3,0.1-0.4s0.2-0.2,0.3-0.4c0.1-0.1,0.3-0.2,0.4-0.3C2.6,18.1,2.8,18.1,2.9,18"/>
	<polygon class="st0" points="6.3,20.1 6.3,20.7 8.8,20.7 8.8,20.1 8.1,20.1 8.1,12.7 6.3,12.7 6.3,13.4 6.9,13.4 6.9,20.1 	"/>
	<path class="st0" d="M15.9,20.1v0.7h2.4v-0.7h-0.6v-3.2c0-0.2,0-0.4-0.1-0.6s-0.2-0.4-0.3-0.6c-0.1-0.2-0.3-0.4-0.6-0.5
		c-0.2-0.1-0.5-0.2-0.9-0.2c-0.2,0-0.4,0-0.5,0.1c-0.2,0.1-0.3,0.2-0.4,0.3c-0.1,0.1-0.2,0.2-0.3,0.3s-0.1,0.2-0.1,0.2h-0.1v-3.1
		h-1.8v0.7h0.6v6.7h-0.6v0.7H15v-0.7h-0.5v-3.4c0-0.1,0.1-0.1,0.1-0.3c0.1-0.1,0.2-0.2,0.3-0.3c0.1-0.1,0.2-0.2,0.4-0.3
		c0.1-0.1,0.3-0.1,0.4-0.1c0.2,0,0.3,0,0.4,0.1c0.1,0.1,0.2,0.2,0.3,0.3c0.1,0.1,0.1,0.2,0.1,0.4c0,0.1,0.1,0.2,0.1,0.4v3.3h-0.7
		V20.1z"/>
	<path class="st0" d="M20.9,14c0.2-0.1,0.2-0.3,0.2-0.5S21,13.1,20.9,13c-0.2-0.1-0.3-0.2-0.5-0.2c-0.4,0-0.8,0.3-0.8,0.8
		c0,0.4,0.4,0.8,0.8,0.8C20.6,14.2,20.8,14.1,20.9,14 M19.2,20.1v0.7h2.5v-0.7H21v-5h-1.8v0.7h0.6v4.4h-0.6V20.1z"/>
	<polygon class="st0" points="22.5,20.1 22.5,20.7 24.9,20.7 24.9,20.1 24.3,20.1 24.3,12.7 22.5,12.7 22.5,13.4 23.1,13.4 
		23.1,20.1 	"/>
	<path class="st0" d="M29.1,20v0.7h1.7V20h-0.6v-3.3c0-0.3-0.1-0.5-0.2-0.7c-0.1-0.2-0.2-0.4-0.4-0.6c-0.2-0.2-0.4-0.3-0.6-0.4
		c-0.2-0.1-0.5-0.1-0.8-0.1s-0.5,0-0.8,0.1c-0.2,0-0.4,0.1-0.6,0.2c-0.2,0.1-0.3,0.1-0.4,0.2l-0.2,0.1v1h1v-0.6
		c0.1-0.1,0.2-0.1,0.3-0.2c0.2-0.1,0.3-0.1,0.5-0.1c0.4,0,0.6,0.1,0.8,0.4c0.2,0.3,0.3,0.6,0.3,0.9v0.4l-1,0.2
		c-0.2,0.1-0.5,0.1-0.8,0.3c-0.3,0.1-0.5,0.2-0.7,0.4c-0.2,0.2-0.4,0.3-0.6,0.5c-0.1,0.2-0.2,0.4-0.2,0.6c0,0.5,0.2,0.8,0.5,1.1
		c0.3,0.3,0.8,0.4,1.3,0.4c0.4,0,0.7-0.2,1-0.4c0.1-0.1,0.3-0.2,0.3-0.3C28.9,20.1,29,20,29.1,20L29.1,20z M28.3,18l0.8-0.2v1.4
		c0,0.1-0.1,0.2-0.2,0.3c-0.1,0.1-0.2,0.2-0.3,0.3c-0.1,0.1-0.2,0.2-0.4,0.3c-0.1,0.1-0.3,0.1-0.4,0.1c-0.2,0-0.4-0.1-0.6-0.3
		c-0.1-0.2-0.2-0.4-0.2-0.7c0-0.2,0-0.3,0.1-0.4s0.2-0.2,0.3-0.4c0.1-0.1,0.3-0.2,0.4-0.3C28,18.1,28.1,18.1,28.3,18"/>
	<polygon class="st0" points="31.7,20.1 31.7,20.7 34.1,20.7 34.1,20.1 33.5,20.1 33.5,12.7 31.7,12.7 31.7,13.4 32.3,13.4 
		32.3,20.1 	"/>
	<path class="st0" d="M43.1,19c0.1-0.4,0.2-0.8,0.2-1.2c0-0.6-0.2-1.3-0.5-1.9c-0.2-0.3-0.4-0.5-0.7-0.7s-0.6-0.3-1-0.3
		c-0.2,0-0.3,0-0.5,0.1s-0.3,0.2-0.4,0.3c-0.1,0.1-0.2,0.2-0.3,0.3s-0.1,0.2-0.1,0.2h-0.1v-3.1h-1.8v0.7h0.6v7.2
		c0.1,0,0.3,0.1,0.5,0.1l0.6,0.1c0.2,0,0.4,0.1,0.6,0.1c0.2,0,0.3,0,0.5,0c0.4,0,0.8-0.1,1.1-0.2c0.3-0.2,0.6-0.4,0.9-0.7
		C42.8,19.7,43,19.3,43.1,19 M41.9,17c0.1,0.2,0.1,0.5,0.1,0.7c0,0.3,0,0.5-0.1,0.8c-0.1,0.5-0.3,1-0.7,1.4
		c-0.2,0.2-0.4,0.2-0.7,0.2c-0.2,0-0.3,0-0.5,0c-0.1,0-0.1,0-0.2,0c-0.1,0-0.1,0-0.2-0.1v-3.4c0-0.2,0.2-0.5,0.3-0.6
		c0.2-0.2,0.4-0.4,0.7-0.4c0.2,0,0.4,0.1,0.5,0.2c0.2,0.1,0.3,0.3,0.4,0.5C41.8,16.5,41.9,16.8,41.9,17"/>
	<path class="st0" d="M47.5,20v0.7h1.7V20h-0.6v-3.3c0-0.3,0-0.5-0.2-0.7c-0.1-0.2-0.2-0.4-0.4-0.6c-0.2-0.2-0.4-0.3-0.6-0.4
		c-0.2-0.1-0.5-0.1-0.8-0.1s-0.5,0-0.8,0.1c-0.2,0-0.4,0.1-0.6,0.2c-0.2,0.1-0.3,0.1-0.4,0.2l-0.2,0.1v1h1v-0.6
		c0.1-0.1,0.2-0.1,0.3-0.2c0.2-0.1,0.3-0.1,0.5-0.1c0.4,0,0.6,0.1,0.8,0.4c0.2,0.3,0.3,0.6,0.3,0.9v0.4l-1,0.2
		c-0.2,0.1-0.5,0.1-0.8,0.3c-0.3,0.1-0.5,0.2-0.7,0.4c-0.2,0.2-0.4,0.3-0.6,0.5c-0.1,0.2-0.2,0.4-0.2,0.6c0,0.5,0.2,0.8,0.5,1.1
		c0.3,0.3,0.8,0.4,1.3,0.4c0.4,0,0.7-0.2,1-0.4c0.1-0.1,0.2-0.2,0.3-0.3C47.4,20.1,47.4,20,47.5,20L47.5,20z M46.7,18l0.8-0.2v1.4
		c0,0.1-0.1,0.2-0.2,0.3c-0.1,0.1-0.2,0.2-0.3,0.3c-0.1,0.1-0.3,0.2-0.4,0.3c-0.1,0.1-0.3,0.1-0.4,0.1c-0.2,0-0.4-0.1-0.6-0.3
		c-0.1-0.2-0.2-0.4-0.2-0.7c0-0.2,0-0.3,0.1-0.4s0.2-0.2,0.3-0.4c0.1-0.1,0.3-0.2,0.4-0.3C46.4,18.1,46.5,18.1,46.7,18"/>
	<path class="st0" d="M51.9,16.6c0-0.1,0.1-0.2,0.1-0.3c0.1-0.1,0.2-0.2,0.3-0.3c0.2-0.2,0.5-0.4,0.8-0.4c0.2,0,0.3,0,0.4,0.1
		c0.1,0.1,0.2,0.2,0.3,0.3c0.1,0.1,0.1,0.2,0.2,0.4c0,0.1,0.1,0.2,0.1,0.4v3.3h-0.5v0.7H56v-0.7h-0.6v-3.2c0-0.2,0-0.5-0.1-0.7
		c-0.1-0.5-0.4-0.9-0.9-1.1c-0.2-0.1-0.5-0.2-0.8-0.2c-0.4,0-0.7,0.2-1,0.4c-0.1,0.1-0.2,0.2-0.3,0.3s-0.1,0.2-0.2,0.2H52v-0.7h-1.8
		v0.7h0.6v4.4h-0.6v0.7h2.4v-0.7H52L51.9,16.6z"/>
	<path class="st0" d="M59.8,20.1v0.7h2.7v-0.7h-0.6l-2.1-2.7l1.7-1.7h0.6V15h-2.2v0.7h0.6l-1.9,2l1.7,2.3h-0.5V20.1z M56.7,20.1v0.7
		H59v-0.7h-0.5v-7.4h-1.8v0.7h0.6v6.7H56.7z"/>
	<path class="st0" d="M38.9,0.1c0.4,0,0.8,0.3,0.8,0.8c0,0.4-0.3,0.8-0.8,0.8c-0.4,0-0.8-0.3-0.8-0.8C38.1,0.5,38.5,0.1,38.9,0.1
		 M39.7,6.7V3.3c-0.1,0-0.1,0-0.2,0h-0.2c-0.1,0-0.2,0-0.3,0s-0.2,0-0.2,0c-0.2,0-0.4,0.1-0.6,0.2c-0.2,0.2-0.3,0.3-0.4,0.6
		c-0.1,0.2-0.2,0.5-0.3,0.7s-0.1,0.5-0.1,0.7s0,0.5,0.1,0.7c0.1,0.5,0.3,1,0.6,1.4c0.2,0.2,0.3,0.3,0.6,0.3c0.1,0,0.3,0,0.4-0.1
		c0.1-0.1,0.2-0.2,0.3-0.3C39.5,7.2,39.7,6.9,39.7,6.7 M39.7,7.6L39.7,7.6c-0.1,0-0.1,0.1-0.2,0.2c-0.2,0.2-0.4,0.4-0.7,0.5
		c-0.1,0.1-0.3,0.1-0.4,0.1c-0.4,0-0.7-0.1-1-0.3s-0.5-0.4-0.7-0.7c-0.2-0.3-0.3-0.6-0.4-1c-0.1-0.4-0.1-0.7-0.1-1.1
		c0-0.3,0.1-0.6,0.2-0.9c0.1-0.3,0.3-0.6,0.5-0.9s0.5-0.5,0.8-0.7s0.7-0.3,1.2-0.3c0.2,0,0.3,0,0.6,0c0.2,0,0.4,0.1,0.7,0.1
		c0.2,0,0.4,0.1,0.6,0.1L41,2.8v6.3v0.1v0.5h-8.6V9.1H33V4.8h-0.6V4.1h1.8v5h5.6L39.7,7.6L39.7,7.6z M61.1,5.8C61,5.5,61,5.2,60.9,5
		s-0.2-0.4-0.4-0.6s-0.4-0.3-0.6-0.3c-0.3,0-0.5,0.1-0.6,0.2c-0.4,0.3-0.5,0.8-0.6,1.3c0,0.3-0.1,0.5-0.1,0.7s0,0.5,0,0.8
		s0.1,0.6,0.2,0.9c0.1,0.3,0.2,0.5,0.4,0.7S59.6,9,59.9,9s0.5-0.1,0.7-0.3S60.9,8.3,61,8c0-0.1,0-0.4,0.1-0.7c0-0.3,0.1-0.6,0.1-0.9
		C61.1,6.2,61.1,6,61.1,5.8 M51.9,9.1c0.9,0,1.7-0.8,1.7-1.7s-0.8-1.6-1.7-1.6h-3.7v1.1v2.3h3.7V9.1z M55,7.4c0,0.7-0.3,1.3-0.8,1.8
		h3.6H58c-0.4-0.4-0.7-1-0.8-1.6c-0.1-0.4-0.1-0.7-0.1-1.1c0-0.3,0.1-0.6,0.2-1c0.1-0.4,0.3-0.7,0.5-1s0.5-0.6,0.8-0.8
		s0.7-0.3,1.2-0.3c0.4,0,0.8,0.1,1.2,0.3c0.3,0.2,0.6,0.4,0.8,0.7s0.4,0.6,0.5,1s0.2,0.7,0.2,1s0,0.6-0.1,1S62.2,8.1,62,8.5
		c-0.2,0.3-0.5,0.6-0.8,0.9c-0.3,0.2-0.8,0.3-1.3,0.3l0,0h-7.2H48h-3.6v1c0,0.2,0,0.4-0.1,0.7c-0.1,0.2-0.1,0.4-0.3,0.6
		c-0.3,0.4-0.7,0.6-1.2,0.6c-0.3,0-0.4,0-0.6-0.1c-0.1,0-0.2-0.1-0.3-0.1l0.4-0.6l0.1,0.1c0.1,0.1,0.2,0.1,0.3,0.1s0.3-0.1,0.3-0.3
		c0.1-0.2,0.1-0.3,0.1-0.5V4.8h-0.7V4.1h1.9v5H47V4.8h-0.6V4.1h1.8V5h4.4C53.9,5,55,6,55,7.4 M26.3,9.1h0.6V2.4h-0.6V1.7h1.8v7.4
		h0.6v0.7h-2.5V9.1H26.3z M7.1,7.8h0.6V2.4H7.1V1.7H9v6h0.6v0.7H7.1V7.8z M1.6,9.5C1.6,10.8,2.2,12,3,12s1.5-0.8,1.5-2.4V2.5H3.8
		V1.7h1.8v7.8c0,2.1-1.2,3.1-2.6,3.1s-2.6-1.4-2.6-3.2L1.6,9.5L1.6,9.5z M17.3,9.1V6.4c-0.6,0.1-1.1,0.5-1.4,1.3
		c-0.2,0.6-0.2,1.1,0,1.5L17.3,9.1L17.3,9.1z M18.6,6.4v2.8H20c0.2-0.3,0.2-0.9,0-1.5C19.7,6.9,19.2,6.4,18.6,6.4 M17.3,4.8h-0.6
		V4.1h1.8v1.5c0.5,0.1,1,0.3,1.3,0.4c0.3,0.2,0.6,0.4,0.8,0.7C20.8,7,21,7.3,21.1,7.6s0.2,0.6,0.2,0.9c0,0.2,0,0.4-0.1,0.6h2.3V2.4
		H23V1.7h1.8v7.4h0.6v0.7H12.9h-0.6H7.1V9.1H11V2.4h-0.6V1.7h1.8v7.4h0.6h1.7c-0.1-0.2-0.1-0.3-0.1-0.6s0.1-0.6,0.2-0.9
		C14.8,7.3,15,7,15.2,6.8c0.2-0.3,0.5-0.5,0.8-0.7c0.3-0.2,0.8-0.3,1.3-0.4V4.8z"/>
</g>
</svg>
